<mxfile host="Electron" modified="2024-06-23T18:47:49.998Z" agent="Mozilla/5.0 (Windows NT 10.0; Win64; x64) AppleWebKit/537.36 (KHTML, like Gecko) draw.io/21.6.8 Chrome/114.0.5735.289 Electron/25.5.0 Safari/537.36" etag="CClo5IEAathIzJdGrsck" version="21.6.8" type="device">
  <diagram name="Page-1" id="GHmQzCoPF6uC2-2MfS-E">
    <mxGraphModel dx="3319" dy="1589" grid="1" gridSize="10" guides="1" tooltips="1" connect="1" arrows="1" fold="1" page="1" pageScale="1" pageWidth="850" pageHeight="1100" math="0" shadow="0">
      <root>
        <mxCell id="0" />
        <mxCell id="1" parent="0" />
        <mxCell id="4eCl8P-VBhG6pIe4pRi_-1" value="" style="group" vertex="1" connectable="0" parent="1">
          <mxGeometry x="-650" y="150" width="1544.14" height="990" as="geometry" />
        </mxCell>
        <mxCell id="vJWKNZolBrSju2JjRTu4-1" value="&lt;font style=&quot;font-size: 21px;&quot;&gt;Login&lt;/font&gt;" style="rounded=0;whiteSpace=wrap;html=1;fontSize=21;" parent="4eCl8P-VBhG6pIe4pRi_-1" vertex="1">
          <mxGeometry x="130.4907042253521" y="95.69420035149383" width="104.3925633802817" height="52.19683655536028" as="geometry" />
        </mxCell>
        <mxCell id="vJWKNZolBrSju2JjRTu4-2" value="" style="endArrow=none;html=1;rounded=0;exitX=0;exitY=0.5;exitDx=0;exitDy=0;fontSize=21;" parent="4eCl8P-VBhG6pIe4pRi_-1" source="vJWKNZolBrSju2JjRTu4-1" target="vJWKNZolBrSju2JjRTu4-3" edge="1">
          <mxGeometry width="50" height="50" relative="1" as="geometry">
            <mxPoint x="417.5702535211268" y="139.19156414762742" as="sourcePoint" />
            <mxPoint x="461.06715492957744" y="95.69420035149383" as="targetPoint" />
          </mxGeometry>
        </mxCell>
        <mxCell id="vJWKNZolBrSju2JjRTu4-3" value="&lt;font style=&quot;font-size: 21px;&quot;&gt;username&lt;/font&gt;" style="ellipse;whiteSpace=wrap;html=1;fontSize=21;" parent="4eCl8P-VBhG6pIe4pRi_-1" vertex="1">
          <mxGeometry y="60.896309314586986" width="104.3925633802817" height="69.59578207381371" as="geometry" />
        </mxCell>
        <mxCell id="vJWKNZolBrSju2JjRTu4-4" value="&lt;font style=&quot;font-size: 21px;&quot;&gt;date&lt;/font&gt;" style="ellipse;whiteSpace=wrap;html=1;fontSize=21;" parent="4eCl8P-VBhG6pIe4pRi_-1" vertex="1">
          <mxGeometry x="86.9938028169014" width="104.3925633802817" height="69.59578207381371" as="geometry" />
        </mxCell>
        <mxCell id="vJWKNZolBrSju2JjRTu4-6" value="" style="endArrow=none;html=1;rounded=0;entryX=0.25;entryY=0;entryDx=0;entryDy=0;exitX=0.5;exitY=1;exitDx=0;exitDy=0;fontSize=21;" parent="4eCl8P-VBhG6pIe4pRi_-1" source="vJWKNZolBrSju2JjRTu4-4" target="vJWKNZolBrSju2JjRTu4-1" edge="1">
          <mxGeometry width="50" height="50" relative="1" as="geometry">
            <mxPoint x="417.5702535211268" y="139.19156414762742" as="sourcePoint" />
            <mxPoint x="461.06715492957744" y="95.69420035149383" as="targetPoint" />
          </mxGeometry>
        </mxCell>
        <mxCell id="vJWKNZolBrSju2JjRTu4-7" value="&lt;font style=&quot;font-size: 21px;&quot;&gt;password&lt;/font&gt;" style="ellipse;whiteSpace=wrap;html=1;fontSize=21;" parent="4eCl8P-VBhG6pIe4pRi_-1" vertex="1">
          <mxGeometry x="191.38636619718307" y="182.68892794376097" width="104.3925633802817" height="69.59578207381371" as="geometry" />
        </mxCell>
        <mxCell id="vJWKNZolBrSju2JjRTu4-8" value="" style="endArrow=none;html=1;rounded=0;entryX=0.5;entryY=1;entryDx=0;entryDy=0;exitX=0.5;exitY=0;exitDx=0;exitDy=0;fontSize=21;" parent="4eCl8P-VBhG6pIe4pRi_-1" source="vJWKNZolBrSju2JjRTu4-7" target="vJWKNZolBrSju2JjRTu4-1" edge="1">
          <mxGeometry width="50" height="50" relative="1" as="geometry">
            <mxPoint x="295.77892957746474" y="156.5905096660808" as="sourcePoint" />
            <mxPoint x="339.2758309859155" y="113.09314586994728" as="targetPoint" />
          </mxGeometry>
        </mxCell>
        <mxCell id="vJWKNZolBrSju2JjRTu4-9" value="&lt;font style=&quot;font-size: 21px;&quot;&gt;email&lt;/font&gt;" style="ellipse;whiteSpace=wrap;html=1;fontSize=21;" parent="4eCl8P-VBhG6pIe4pRi_-1" vertex="1">
          <mxGeometry x="86.9938028169014" y="191.38840070298767" width="104.3925633802817" height="69.59578207381371" as="geometry" />
        </mxCell>
        <mxCell id="vJWKNZolBrSju2JjRTu4-11" value="" style="endArrow=none;html=1;rounded=0;exitX=0.5;exitY=0;exitDx=0;exitDy=0;entryX=0.5;entryY=1;entryDx=0;entryDy=0;fontSize=21;" parent="4eCl8P-VBhG6pIe4pRi_-1" source="vJWKNZolBrSju2JjRTu4-9" target="vJWKNZolBrSju2JjRTu4-1" edge="1">
          <mxGeometry width="50" height="50" relative="1" as="geometry">
            <mxPoint x="269.6807887323944" y="139.19156414762742" as="sourcePoint" />
            <mxPoint x="313.17769014084496" y="95.69420035149383" as="targetPoint" />
          </mxGeometry>
        </mxCell>
        <mxCell id="vJWKNZolBrSju2JjRTu4-12" value="&lt;u style=&quot;font-size: 21px;&quot;&gt;&lt;font style=&quot;font-size: 21px;&quot;&gt;id&lt;/font&gt;&lt;/u&gt;" style="ellipse;whiteSpace=wrap;html=1;fontSize=21;" parent="4eCl8P-VBhG6pIe4pRi_-1" vertex="1">
          <mxGeometry y="139.19156414762742" width="104.3925633802817" height="69.59578207381371" as="geometry" />
        </mxCell>
        <mxCell id="vJWKNZolBrSju2JjRTu4-14" value="" style="endArrow=none;html=1;rounded=0;exitX=1;exitY=0;exitDx=0;exitDy=0;entryX=0;entryY=0.75;entryDx=0;entryDy=0;fontSize=21;" parent="4eCl8P-VBhG6pIe4pRi_-1" source="vJWKNZolBrSju2JjRTu4-12" target="vJWKNZolBrSju2JjRTu4-1" edge="1">
          <mxGeometry width="50" height="50" relative="1" as="geometry">
            <mxPoint x="86.9938028169014" y="139.19156414762742" as="sourcePoint" />
            <mxPoint x="130.4907042253521" y="95.69420035149383" as="targetPoint" />
          </mxGeometry>
        </mxCell>
        <mxCell id="vJWKNZolBrSju2JjRTu4-15" value="account" style="rounded=0;whiteSpace=wrap;html=1;fontSize=21;" parent="4eCl8P-VBhG6pIe4pRi_-1" vertex="1">
          <mxGeometry x="1113.5206760563378" y="139.19156414762742" width="104.3925633802817" height="52.19683655536028" as="geometry" />
        </mxCell>
        <mxCell id="vJWKNZolBrSju2JjRTu4-16" value="" style="endArrow=none;html=1;rounded=0;exitX=1;exitY=0.5;exitDx=0;exitDy=0;fontSize=21;" parent="4eCl8P-VBhG6pIe4pRi_-1" source="vJWKNZolBrSju2JjRTu4-15" target="vJWKNZolBrSju2JjRTu4-17" edge="1">
          <mxGeometry width="50" height="50" relative="1" as="geometry">
            <mxPoint x="1400.6002253521128" y="182.68892794376097" as="sourcePoint" />
            <mxPoint x="1444.0971267605632" y="139.19156414762742" as="targetPoint" />
          </mxGeometry>
        </mxCell>
        <mxCell id="vJWKNZolBrSju2JjRTu4-17" value="username" style="ellipse;whiteSpace=wrap;html=1;fontSize=21;" parent="4eCl8P-VBhG6pIe4pRi_-1" vertex="1">
          <mxGeometry x="1226.6126197183096" y="60.896309314586986" width="104.3925633802817" height="69.59578207381371" as="geometry" />
        </mxCell>
        <mxCell id="vJWKNZolBrSju2JjRTu4-18" value="date" style="ellipse;whiteSpace=wrap;html=1;fontSize=21;" parent="4eCl8P-VBhG6pIe4pRi_-1" vertex="1">
          <mxGeometry x="1322.3058028169012" y="130.4920913884007" width="104.3925633802817" height="69.59578207381371" as="geometry" />
        </mxCell>
        <mxCell id="vJWKNZolBrSju2JjRTu4-19" value="" style="endArrow=none;html=1;rounded=0;entryX=1.004;entryY=0.824;entryDx=0;entryDy=0;exitX=0;exitY=0.5;exitDx=0;exitDy=0;entryPerimeter=0;fontSize=21;" parent="4eCl8P-VBhG6pIe4pRi_-1" source="vJWKNZolBrSju2JjRTu4-18" target="vJWKNZolBrSju2JjRTu4-15" edge="1">
          <mxGeometry width="50" height="50" relative="1" as="geometry">
            <mxPoint x="1400.6002253521128" y="182.68892794376097" as="sourcePoint" />
            <mxPoint x="1444.0971267605632" y="139.19156414762742" as="targetPoint" />
          </mxGeometry>
        </mxCell>
        <mxCell id="vJWKNZolBrSju2JjRTu4-20" value="password" style="ellipse;whiteSpace=wrap;html=1;fontSize=21;" parent="4eCl8P-VBhG6pIe4pRi_-1" vertex="1">
          <mxGeometry x="1313.6064225352109" y="208.7873462214411" width="104.3925633802817" height="69.59578207381371" as="geometry" />
        </mxCell>
        <mxCell id="vJWKNZolBrSju2JjRTu4-21" value="" style="endArrow=none;html=1;rounded=0;entryX=0.877;entryY=1.014;entryDx=0;entryDy=0;entryPerimeter=0;exitX=0.5;exitY=0;exitDx=0;exitDy=0;fontSize=21;" parent="4eCl8P-VBhG6pIe4pRi_-1" source="vJWKNZolBrSju2JjRTu4-20" target="vJWKNZolBrSju2JjRTu4-15" edge="1">
          <mxGeometry width="50" height="50" relative="1" as="geometry">
            <mxPoint x="1278.8089014084503" y="200.0878734622144" as="sourcePoint" />
            <mxPoint x="1322.3058028169012" y="156.5905096660808" as="targetPoint" />
          </mxGeometry>
        </mxCell>
        <mxCell id="vJWKNZolBrSju2JjRTu4-22" value="uid" style="ellipse;whiteSpace=wrap;html=1;fontSize=21;" parent="4eCl8P-VBhG6pIe4pRi_-1" vertex="1">
          <mxGeometry x="1209.2138591549294" y="217.4868189806678" width="104.3925633802817" height="69.59578207381371" as="geometry" />
        </mxCell>
        <mxCell id="vJWKNZolBrSju2JjRTu4-23" value="" style="endArrow=none;html=1;rounded=0;exitX=0.5;exitY=0;exitDx=0;exitDy=0;entryX=0.5;entryY=1;entryDx=0;entryDy=0;fontSize=21;" parent="4eCl8P-VBhG6pIe4pRi_-1" source="vJWKNZolBrSju2JjRTu4-22" target="vJWKNZolBrSju2JjRTu4-15" edge="1">
          <mxGeometry width="50" height="50" relative="1" as="geometry">
            <mxPoint x="1252.7107605633798" y="182.68892794376097" as="sourcePoint" />
            <mxPoint x="1296.2076619718307" y="139.19156414762742" as="targetPoint" />
          </mxGeometry>
        </mxCell>
        <mxCell id="vJWKNZolBrSju2JjRTu4-24" value="&lt;u style=&quot;font-size: 21px;&quot;&gt;id&lt;/u&gt;" style="ellipse;whiteSpace=wrap;html=1;fontSize=21;" parent="4eCl8P-VBhG6pIe4pRi_-1" vertex="1">
          <mxGeometry x="1009.128112676056" y="208.7873462214411" width="104.3925633802817" height="69.59578207381371" as="geometry" />
        </mxCell>
        <mxCell id="vJWKNZolBrSju2JjRTu4-25" value="" style="endArrow=none;html=1;rounded=0;exitX=1;exitY=0;exitDx=0;exitDy=0;entryX=0.25;entryY=1;entryDx=0;entryDy=0;fontSize=21;" parent="4eCl8P-VBhG6pIe4pRi_-1" source="vJWKNZolBrSju2JjRTu4-24" target="vJWKNZolBrSju2JjRTu4-15" edge="1">
          <mxGeometry width="50" height="50" relative="1" as="geometry">
            <mxPoint x="1070.0237746478872" y="182.68892794376097" as="sourcePoint" />
            <mxPoint x="1113.5206760563378" y="139.19156414762742" as="targetPoint" />
          </mxGeometry>
        </mxCell>
        <mxCell id="vJWKNZolBrSju2JjRTu4-26" value="" style="endArrow=none;html=1;rounded=0;exitX=0.5;exitY=0;exitDx=0;exitDy=0;fontSize=21;" parent="4eCl8P-VBhG6pIe4pRi_-1" source="vJWKNZolBrSju2JjRTu4-15" target="vJWKNZolBrSju2JjRTu4-27" edge="1">
          <mxGeometry width="50" height="50" relative="1" as="geometry">
            <mxPoint x="1052.6250140845068" y="78.2952548330404" as="sourcePoint" />
            <mxPoint x="1278.8089014084503" y="52.19683655536028" as="targetPoint" />
          </mxGeometry>
        </mxCell>
        <mxCell id="vJWKNZolBrSju2JjRTu4-27" value="ppic" style="ellipse;whiteSpace=wrap;html=1;fontSize=21;" parent="4eCl8P-VBhG6pIe4pRi_-1" vertex="1">
          <mxGeometry x="1122.220056338028" y="17.398945518453427" width="104.3925633802817" height="69.59578207381371" as="geometry" />
        </mxCell>
        <mxCell id="vJWKNZolBrSju2JjRTu4-28" value="" style="endArrow=none;html=1;rounded=0;exitX=0;exitY=0;exitDx=0;exitDy=0;fontSize=21;" parent="4eCl8P-VBhG6pIe4pRi_-1" source="vJWKNZolBrSju2JjRTu4-15" target="vJWKNZolBrSju2JjRTu4-29" edge="1">
          <mxGeometry width="50" height="50" relative="1" as="geometry">
            <mxPoint x="1052.6250140845068" y="147.89103690685414" as="sourcePoint" />
            <mxPoint x="1165.7169577464788" y="60.896309314586986" as="targetPoint" />
          </mxGeometry>
        </mxCell>
        <mxCell id="vJWKNZolBrSju2JjRTu4-29" value="bip" style="ellipse;whiteSpace=wrap;html=1;fontSize=21;" parent="4eCl8P-VBhG6pIe4pRi_-1" vertex="1">
          <mxGeometry x="1009.128112676056" y="26.09841827768014" width="104.3925633802817" height="69.59578207381371" as="geometry" />
        </mxCell>
        <mxCell id="vJWKNZolBrSju2JjRTu4-32" value="Comment" style="rounded=0;whiteSpace=wrap;html=1;fontSize=21;" parent="4eCl8P-VBhG6pIe4pRi_-1" vertex="1">
          <mxGeometry x="139.19008450704223" y="408.87521968365553" width="104.3925633802817" height="52.19683655536028" as="geometry" />
        </mxCell>
        <mxCell id="vJWKNZolBrSju2JjRTu4-33" value="" style="endArrow=none;html=1;rounded=0;exitX=0;exitY=0.25;exitDx=0;exitDy=0;fontSize=21;" parent="4eCl8P-VBhG6pIe4pRi_-1" source="vJWKNZolBrSju2JjRTu4-32" target="vJWKNZolBrSju2JjRTu4-34" edge="1">
          <mxGeometry width="50" height="50" relative="1" as="geometry">
            <mxPoint x="426.2696338028168" y="452.3725834797891" as="sourcePoint" />
            <mxPoint x="469.7665352112676" y="408.87521968365553" as="targetPoint" />
          </mxGeometry>
        </mxCell>
        <mxCell id="vJWKNZolBrSju2JjRTu4-34" value="date" style="ellipse;whiteSpace=wrap;html=1;fontSize=21;" parent="4eCl8P-VBhG6pIe4pRi_-1" vertex="1">
          <mxGeometry y="382.77680140597533" width="104.3925633802817" height="69.59578207381371" as="geometry" />
        </mxCell>
        <mxCell id="vJWKNZolBrSju2JjRTu4-35" value="comment" style="ellipse;whiteSpace=wrap;html=1;fontSize=21;" parent="4eCl8P-VBhG6pIe4pRi_-1" vertex="1">
          <mxGeometry x="43.4969014084507" y="304.481546572935" width="104.3925633802817" height="69.59578207381371" as="geometry" />
        </mxCell>
        <mxCell id="vJWKNZolBrSju2JjRTu4-36" value="" style="endArrow=none;html=1;rounded=0;entryX=0.597;entryY=-0.01;entryDx=0;entryDy=0;exitX=1;exitY=1;exitDx=0;exitDy=0;entryPerimeter=0;fontSize=21;" parent="4eCl8P-VBhG6pIe4pRi_-1" source="vJWKNZolBrSju2JjRTu4-35" target="vJWKNZolBrSju2JjRTu4-32" edge="1">
          <mxGeometry width="50" height="50" relative="1" as="geometry">
            <mxPoint x="426.2696338028168" y="452.3725834797891" as="sourcePoint" />
            <mxPoint x="469.7665352112676" y="408.87521968365553" as="targetPoint" />
          </mxGeometry>
        </mxCell>
        <mxCell id="vJWKNZolBrSju2JjRTu4-37" value="uid" style="ellipse;whiteSpace=wrap;html=1;fontSize=21;" parent="4eCl8P-VBhG6pIe4pRi_-1" vertex="1">
          <mxGeometry x="243.5826478873239" y="487.1704745166959" width="104.3925633802817" height="69.59578207381371" as="geometry" />
        </mxCell>
        <mxCell id="vJWKNZolBrSju2JjRTu4-38" value="" style="endArrow=none;html=1;rounded=0;entryX=0.877;entryY=1.014;entryDx=0;entryDy=0;entryPerimeter=0;exitX=0.5;exitY=0;exitDx=0;exitDy=0;fontSize=21;" parent="4eCl8P-VBhG6pIe4pRi_-1" source="vJWKNZolBrSju2JjRTu4-37" target="vJWKNZolBrSju2JjRTu4-32" edge="1">
          <mxGeometry width="50" height="50" relative="1" as="geometry">
            <mxPoint x="304.4783098591549" y="469.7715289982425" as="sourcePoint" />
            <mxPoint x="347.9752112676056" y="426.274165202109" as="targetPoint" />
          </mxGeometry>
        </mxCell>
        <mxCell id="vJWKNZolBrSju2JjRTu4-39" value="pid&lt;br style=&quot;font-size: 21px;&quot;&gt;" style="ellipse;whiteSpace=wrap;html=1;fontSize=21;" parent="4eCl8P-VBhG6pIe4pRi_-1" vertex="1">
          <mxGeometry x="139.19008450704223" y="504.5694200351493" width="104.3925633802817" height="69.59578207381371" as="geometry" />
        </mxCell>
        <mxCell id="vJWKNZolBrSju2JjRTu4-40" value="" style="endArrow=none;html=1;rounded=0;exitX=0.5;exitY=0;exitDx=0;exitDy=0;entryX=0.5;entryY=1;entryDx=0;entryDy=0;fontSize=21;" parent="4eCl8P-VBhG6pIe4pRi_-1" source="vJWKNZolBrSju2JjRTu4-39" target="vJWKNZolBrSju2JjRTu4-32" edge="1">
          <mxGeometry width="50" height="50" relative="1" as="geometry">
            <mxPoint x="278.38016901408446" y="452.3725834797891" as="sourcePoint" />
            <mxPoint x="321.8770704225352" y="408.87521968365553" as="targetPoint" />
          </mxGeometry>
        </mxCell>
        <mxCell id="vJWKNZolBrSju2JjRTu4-41" value="&lt;u style=&quot;font-size: 21px;&quot;&gt;id&lt;/u&gt;" style="ellipse;whiteSpace=wrap;html=1;fontSize=21;" parent="4eCl8P-VBhG6pIe4pRi_-1" vertex="1">
          <mxGeometry x="34.79752112676056" y="478.47100175746925" width="104.3925633802817" height="69.59578207381371" as="geometry" />
        </mxCell>
        <mxCell id="vJWKNZolBrSju2JjRTu4-42" value="" style="endArrow=none;html=1;rounded=0;exitX=1;exitY=0;exitDx=0;exitDy=0;entryX=0.25;entryY=1;entryDx=0;entryDy=0;fontSize=21;" parent="4eCl8P-VBhG6pIe4pRi_-1" source="vJWKNZolBrSju2JjRTu4-41" target="vJWKNZolBrSju2JjRTu4-32" edge="1">
          <mxGeometry width="50" height="50" relative="1" as="geometry">
            <mxPoint x="95.69318309859153" y="452.3725834797891" as="sourcePoint" />
            <mxPoint x="139.19008450704223" y="408.87521968365553" as="targetPoint" />
          </mxGeometry>
        </mxCell>
        <mxCell id="vJWKNZolBrSju2JjRTu4-43" value="follower" style="rounded=0;whiteSpace=wrap;html=1;fontSize=21;" parent="4eCl8P-VBhG6pIe4pRi_-1" vertex="1">
          <mxGeometry x="1235.312" y="494.13005272407725" width="104.3925633802817" height="52.19683655536028" as="geometry" />
        </mxCell>
        <mxCell id="vJWKNZolBrSju2JjRTu4-46" value="date" style="ellipse;whiteSpace=wrap;html=1;fontSize=21;" parent="4eCl8P-VBhG6pIe4pRi_-1" vertex="1">
          <mxGeometry x="1439.7474366197182" y="556.7662565905097" width="104.3925633802817" height="69.59578207381371" as="geometry" />
        </mxCell>
        <mxCell id="vJWKNZolBrSju2JjRTu4-47" value="" style="endArrow=none;html=1;rounded=0;entryX=1.004;entryY=0.824;entryDx=0;entryDy=0;exitX=0;exitY=0.5;exitDx=0;exitDy=0;entryPerimeter=0;fontSize=21;" parent="4eCl8P-VBhG6pIe4pRi_-1" source="vJWKNZolBrSju2JjRTu4-46" target="vJWKNZolBrSju2JjRTu4-43" edge="1">
          <mxGeometry width="50" height="50" relative="1" as="geometry">
            <mxPoint x="1879.0661408450703" y="408.87521968365553" as="sourcePoint" />
            <mxPoint x="1922.563042253521" y="365.37785588752195" as="targetPoint" />
          </mxGeometry>
        </mxCell>
        <mxCell id="vJWKNZolBrSju2JjRTu4-48" value="reciver" style="ellipse;whiteSpace=wrap;html=1;fontSize=21;" parent="4eCl8P-VBhG6pIe4pRi_-1" vertex="1">
          <mxGeometry x="1391.9008450704223" y="635.0615114235501" width="104.3925633802817" height="69.59578207381371" as="geometry" />
        </mxCell>
        <mxCell id="vJWKNZolBrSju2JjRTu4-49" value="" style="endArrow=none;html=1;rounded=0;entryX=0.877;entryY=1.014;entryDx=0;entryDy=0;entryPerimeter=0;exitX=0.5;exitY=0;exitDx=0;exitDy=0;fontSize=21;" parent="4eCl8P-VBhG6pIe4pRi_-1" source="vJWKNZolBrSju2JjRTu4-48" target="vJWKNZolBrSju2JjRTu4-43" edge="1">
          <mxGeometry width="50" height="50" relative="1" as="geometry">
            <mxPoint x="1757.2748169014085" y="426.274165202109" as="sourcePoint" />
            <mxPoint x="1800.771718309859" y="382.77680140597533" as="targetPoint" />
          </mxGeometry>
        </mxCell>
        <mxCell id="vJWKNZolBrSju2JjRTu4-50" value="sender" style="ellipse;whiteSpace=wrap;html=1;fontSize=21;" parent="4eCl8P-VBhG6pIe4pRi_-1" vertex="1">
          <mxGeometry x="1261.41014084507" y="617.6625659050966" width="104.3925633802817" height="69.59578207381371" as="geometry" />
        </mxCell>
        <mxCell id="vJWKNZolBrSju2JjRTu4-51" value="" style="endArrow=none;html=1;rounded=0;exitX=0.5;exitY=0;exitDx=0;exitDy=0;entryX=0.5;entryY=1;entryDx=0;entryDy=0;fontSize=21;" parent="4eCl8P-VBhG6pIe4pRi_-1" source="vJWKNZolBrSju2JjRTu4-50" target="vJWKNZolBrSju2JjRTu4-43" edge="1">
          <mxGeometry width="50" height="50" relative="1" as="geometry">
            <mxPoint x="1731.176676056338" y="408.87521968365553" as="sourcePoint" />
            <mxPoint x="1774.6735774647882" y="365.37785588752195" as="targetPoint" />
          </mxGeometry>
        </mxCell>
        <mxCell id="vJWKNZolBrSju2JjRTu4-52" value="&lt;u style=&quot;font-size: 21px;&quot;&gt;id&lt;/u&gt;" style="ellipse;whiteSpace=wrap;html=1;fontSize=21;" parent="4eCl8P-VBhG6pIe4pRi_-1" vertex="1">
          <mxGeometry x="1157.0175774647885" y="574.165202108963" width="104.3925633802817" height="69.59578207381371" as="geometry" />
        </mxCell>
        <mxCell id="vJWKNZolBrSju2JjRTu4-53" value="" style="endArrow=none;html=1;rounded=0;exitX=1;exitY=0;exitDx=0;exitDy=0;entryX=0.25;entryY=1;entryDx=0;entryDy=0;fontSize=21;" parent="4eCl8P-VBhG6pIe4pRi_-1" source="vJWKNZolBrSju2JjRTu4-52" target="vJWKNZolBrSju2JjRTu4-43" edge="1">
          <mxGeometry width="50" height="50" relative="1" as="geometry">
            <mxPoint x="1548.4896901408447" y="408.87521968365553" as="sourcePoint" />
            <mxPoint x="1591.9865915492953" y="365.37785588752195" as="targetPoint" />
          </mxGeometry>
        </mxCell>
        <mxCell id="vJWKNZolBrSju2JjRTu4-54" value="likes&lt;br style=&quot;font-size: 21px;&quot;&gt;" style="rounded=0;whiteSpace=wrap;html=1;fontSize=21;" parent="4eCl8P-VBhG6pIe4pRi_-1" vertex="1">
          <mxGeometry x="156.58884507042248" y="809.0509666080844" width="104.3925633802817" height="52.19683655536028" as="geometry" />
        </mxCell>
        <mxCell id="vJWKNZolBrSju2JjRTu4-55" value="date" style="ellipse;whiteSpace=wrap;html=1;fontSize=21;" parent="4eCl8P-VBhG6pIe4pRi_-1" vertex="1">
          <mxGeometry x="304.4783098591549" y="800.3514938488576" width="104.3925633802817" height="69.59578207381371" as="geometry" />
        </mxCell>
        <mxCell id="vJWKNZolBrSju2JjRTu4-56" value="" style="endArrow=none;html=1;rounded=0;entryX=1;entryY=0.5;entryDx=0;entryDy=0;exitX=0;exitY=0.5;exitDx=0;exitDy=0;fontSize=21;" parent="4eCl8P-VBhG6pIe4pRi_-1" source="vJWKNZolBrSju2JjRTu4-55" target="vJWKNZolBrSju2JjRTu4-54" edge="1">
          <mxGeometry width="50" height="50" relative="1" as="geometry">
            <mxPoint x="443.66839436619705" y="852.548330404218" as="sourcePoint" />
            <mxPoint x="487.1652957746478" y="809.0509666080844" as="targetPoint" />
          </mxGeometry>
        </mxCell>
        <mxCell id="vJWKNZolBrSju2JjRTu4-57" value="uid" style="ellipse;whiteSpace=wrap;html=1;fontSize=21;" parent="4eCl8P-VBhG6pIe4pRi_-1" vertex="1">
          <mxGeometry x="260.9814084507042" y="887.3462214411247" width="104.3925633802817" height="69.59578207381371" as="geometry" />
        </mxCell>
        <mxCell id="vJWKNZolBrSju2JjRTu4-58" value="" style="endArrow=none;html=1;rounded=0;entryX=0.877;entryY=1.014;entryDx=0;entryDy=0;entryPerimeter=0;exitX=0.5;exitY=0;exitDx=0;exitDy=0;fontSize=21;" parent="4eCl8P-VBhG6pIe4pRi_-1" source="vJWKNZolBrSju2JjRTu4-57" target="vJWKNZolBrSju2JjRTu4-54" edge="1">
          <mxGeometry width="50" height="50" relative="1" as="geometry">
            <mxPoint x="321.8770704225352" y="869.9472759226712" as="sourcePoint" />
            <mxPoint x="365.3739718309859" y="826.4499121265377" as="targetPoint" />
          </mxGeometry>
        </mxCell>
        <mxCell id="vJWKNZolBrSju2JjRTu4-59" value="pid" style="ellipse;whiteSpace=wrap;html=1;fontSize=21;" parent="4eCl8P-VBhG6pIe4pRi_-1" vertex="1">
          <mxGeometry x="156.58884507042248" y="904.7451669595782" width="104.3925633802817" height="69.59578207381371" as="geometry" />
        </mxCell>
        <mxCell id="vJWKNZolBrSju2JjRTu4-60" value="" style="endArrow=none;html=1;rounded=0;exitX=0.5;exitY=0;exitDx=0;exitDy=0;entryX=0.5;entryY=1;entryDx=0;entryDy=0;fontSize=21;" parent="4eCl8P-VBhG6pIe4pRi_-1" source="vJWKNZolBrSju2JjRTu4-59" target="vJWKNZolBrSju2JjRTu4-54" edge="1">
          <mxGeometry width="50" height="50" relative="1" as="geometry">
            <mxPoint x="295.77892957746474" y="852.548330404218" as="sourcePoint" />
            <mxPoint x="339.2758309859155" y="809.0509666080844" as="targetPoint" />
          </mxGeometry>
        </mxCell>
        <mxCell id="vJWKNZolBrSju2JjRTu4-61" value="&lt;u style=&quot;font-size: 21px;&quot;&gt;id&lt;/u&gt;" style="ellipse;whiteSpace=wrap;html=1;fontSize=21;" parent="4eCl8P-VBhG6pIe4pRi_-1" vertex="1">
          <mxGeometry x="52.19628169014085" y="878.6467486818981" width="104.3925633802817" height="69.59578207381371" as="geometry" />
        </mxCell>
        <mxCell id="vJWKNZolBrSju2JjRTu4-62" value="" style="endArrow=none;html=1;rounded=0;exitX=1;exitY=0;exitDx=0;exitDy=0;entryX=0.25;entryY=1;entryDx=0;entryDy=0;fontSize=21;" parent="4eCl8P-VBhG6pIe4pRi_-1" source="vJWKNZolBrSju2JjRTu4-61" target="vJWKNZolBrSju2JjRTu4-54" edge="1">
          <mxGeometry width="50" height="50" relative="1" as="geometry">
            <mxPoint x="113.0919436619718" y="852.548330404218" as="sourcePoint" />
            <mxPoint x="156.58884507042248" y="809.0509666080844" as="targetPoint" />
          </mxGeometry>
        </mxCell>
        <mxCell id="vJWKNZolBrSju2JjRTu4-64" value="" style="endArrow=none;html=1;rounded=0;entryX=0;entryY=0.5;entryDx=0;entryDy=0;exitX=1;exitY=0.5;exitDx=0;exitDy=0;fontSize=21;" parent="4eCl8P-VBhG6pIe4pRi_-1" source="vJWKNZolBrSju2JjRTu4-66" target="vJWKNZolBrSju2JjRTu4-54" edge="1">
          <mxGeometry width="50" height="50" relative="1" as="geometry">
            <mxPoint x="60.895661971830975" y="852.548330404218" as="sourcePoint" />
            <mxPoint x="104.3925633802817" y="809.0509666080844" as="targetPoint" />
          </mxGeometry>
        </mxCell>
        <mxCell id="vJWKNZolBrSju2JjRTu4-66" value="likes" style="ellipse;whiteSpace=wrap;html=1;fontSize=21;" parent="4eCl8P-VBhG6pIe4pRi_-1" vertex="1">
          <mxGeometry y="800.3514938488576" width="104.3925633802817" height="69.59578207381371" as="geometry" />
        </mxCell>
        <mxCell id="vJWKNZolBrSju2JjRTu4-67" value="messages" style="rounded=0;whiteSpace=wrap;html=1;fontSize=21;" parent="4eCl8P-VBhG6pIe4pRi_-1" vertex="1">
          <mxGeometry x="983.8999098591548" y="789.9121265377854" width="104.3925633802817" height="52.19683655536028" as="geometry" />
        </mxCell>
        <mxCell id="vJWKNZolBrSju2JjRTu4-68" value="date" style="ellipse;whiteSpace=wrap;html=1;fontSize=21;" parent="4eCl8P-VBhG6pIe4pRi_-1" vertex="1">
          <mxGeometry x="1144.8384450704223" y="816.0105448154654" width="104.3925633802817" height="69.59578207381371" as="geometry" />
        </mxCell>
        <mxCell id="vJWKNZolBrSju2JjRTu4-69" value="" style="endArrow=none;html=1;rounded=0;entryX=1;entryY=0.5;entryDx=0;entryDy=0;exitX=0;exitY=0.5;exitDx=0;exitDy=0;fontSize=21;" parent="4eCl8P-VBhG6pIe4pRi_-1" source="vJWKNZolBrSju2JjRTu4-68" target="vJWKNZolBrSju2JjRTu4-67" edge="1">
          <mxGeometry width="50" height="50" relative="1" as="geometry">
            <mxPoint x="1284.0285295774645" y="868.2073813708258" as="sourcePoint" />
            <mxPoint x="1327.5254309859151" y="824.7100175746924" as="targetPoint" />
          </mxGeometry>
        </mxCell>
        <mxCell id="vJWKNZolBrSju2JjRTu4-70" value="messege" style="ellipse;whiteSpace=wrap;html=1;fontSize=21;" parent="4eCl8P-VBhG6pIe4pRi_-1" vertex="1">
          <mxGeometry x="1101.3415436619716" y="903.0052724077327" width="104.3925633802817" height="69.59578207381371" as="geometry" />
        </mxCell>
        <mxCell id="vJWKNZolBrSju2JjRTu4-71" value="" style="endArrow=none;html=1;rounded=0;entryX=0.877;entryY=1.014;entryDx=0;entryDy=0;entryPerimeter=0;exitX=0.5;exitY=0;exitDx=0;exitDy=0;fontSize=21;" parent="4eCl8P-VBhG6pIe4pRi_-1" source="vJWKNZolBrSju2JjRTu4-70" target="vJWKNZolBrSju2JjRTu4-67" edge="1">
          <mxGeometry width="50" height="50" relative="1" as="geometry">
            <mxPoint x="1162.2372056338027" y="885.6063268892792" as="sourcePoint" />
            <mxPoint x="1205.7341070422533" y="842.1089630931457" as="targetPoint" />
          </mxGeometry>
        </mxCell>
        <mxCell id="vJWKNZolBrSju2JjRTu4-72" value="rid" style="ellipse;whiteSpace=wrap;html=1;fontSize=21;" parent="4eCl8P-VBhG6pIe4pRi_-1" vertex="1">
          <mxGeometry x="996.9489802816898" y="920.4042179261861" width="104.3925633802817" height="69.59578207381371" as="geometry" />
        </mxCell>
        <mxCell id="vJWKNZolBrSju2JjRTu4-73" value="" style="endArrow=none;html=1;rounded=0;exitX=0.5;exitY=0;exitDx=0;exitDy=0;entryX=0.5;entryY=1;entryDx=0;entryDy=0;fontSize=21;" parent="4eCl8P-VBhG6pIe4pRi_-1" source="vJWKNZolBrSju2JjRTu4-72" target="vJWKNZolBrSju2JjRTu4-67" edge="1">
          <mxGeometry width="50" height="50" relative="1" as="geometry">
            <mxPoint x="1136.1390647887322" y="868.2073813708258" as="sourcePoint" />
            <mxPoint x="1179.6359661971828" y="824.7100175746924" as="targetPoint" />
          </mxGeometry>
        </mxCell>
        <mxCell id="vJWKNZolBrSju2JjRTu4-74" value="sid" style="ellipse;whiteSpace=wrap;html=1;fontSize=21;" parent="4eCl8P-VBhG6pIe4pRi_-1" vertex="1">
          <mxGeometry x="892.5564169014083" y="894.305799648506" width="104.3925633802817" height="69.59578207381371" as="geometry" />
        </mxCell>
        <mxCell id="vJWKNZolBrSju2JjRTu4-75" value="" style="endArrow=none;html=1;rounded=0;exitX=1;exitY=0;exitDx=0;exitDy=0;entryX=0.25;entryY=1;entryDx=0;entryDy=0;fontSize=21;" parent="4eCl8P-VBhG6pIe4pRi_-1" source="vJWKNZolBrSju2JjRTu4-74" target="vJWKNZolBrSju2JjRTu4-67" edge="1">
          <mxGeometry width="50" height="50" relative="1" as="geometry">
            <mxPoint x="953.4520788732392" y="868.2073813708258" as="sourcePoint" />
            <mxPoint x="996.9489802816898" y="824.7100175746924" as="targetPoint" />
          </mxGeometry>
        </mxCell>
        <mxCell id="vJWKNZolBrSju2JjRTu4-76" value="" style="endArrow=none;html=1;rounded=0;entryX=0;entryY=0.5;entryDx=0;entryDy=0;exitX=1;exitY=0.5;exitDx=0;exitDy=0;fontSize=21;" parent="4eCl8P-VBhG6pIe4pRi_-1" source="vJWKNZolBrSju2JjRTu4-77" target="vJWKNZolBrSju2JjRTu4-67" edge="1">
          <mxGeometry width="50" height="50" relative="1" as="geometry">
            <mxPoint x="901.2557971830985" y="868.2073813708258" as="sourcePoint" />
            <mxPoint x="944.752698591549" y="824.7100175746924" as="targetPoint" />
          </mxGeometry>
        </mxCell>
        <mxCell id="vJWKNZolBrSju2JjRTu4-77" value="&lt;u style=&quot;font-size: 21px;&quot;&gt;id&lt;/u&gt;" style="ellipse;whiteSpace=wrap;html=1;fontSize=21;" parent="4eCl8P-VBhG6pIe4pRi_-1" vertex="1">
          <mxGeometry x="840.3601352112673" y="816.0105448154654" width="104.3925633802817" height="69.59578207381371" as="geometry" />
        </mxCell>
        <mxCell id="vJWKNZolBrSju2JjRTu4-78" value="posts" style="rounded=0;whiteSpace=wrap;html=1;fontSize=21;" parent="4eCl8P-VBhG6pIe4pRi_-1" vertex="1">
          <mxGeometry x="635.0547605633802" y="517.6186291739895" width="104.3925633802817" height="52.19683655536028" as="geometry" />
        </mxCell>
        <mxCell id="vJWKNZolBrSju2JjRTu4-79" value="" style="endArrow=none;html=1;rounded=0;exitX=1;exitY=0.5;exitDx=0;exitDy=0;fontSize=21;" parent="4eCl8P-VBhG6pIe4pRi_-1" source="vJWKNZolBrSju2JjRTu4-78" target="vJWKNZolBrSju2JjRTu4-80" edge="1">
          <mxGeometry width="50" height="50" relative="1" as="geometry">
            <mxPoint x="922.1343098591549" y="561.115992970123" as="sourcePoint" />
            <mxPoint x="965.6312112676055" y="517.6186291739895" as="targetPoint" />
          </mxGeometry>
        </mxCell>
        <mxCell id="vJWKNZolBrSju2JjRTu4-80" value="date" style="ellipse;whiteSpace=wrap;html=1;fontSize=21;" parent="4eCl8P-VBhG6pIe4pRi_-1" vertex="1">
          <mxGeometry x="817.7417464788731" y="600.2636203866431" width="104.3925633802817" height="69.59578207381371" as="geometry" />
        </mxCell>
        <mxCell id="vJWKNZolBrSju2JjRTu4-81" value="post" style="ellipse;whiteSpace=wrap;html=1;fontSize=21;" parent="4eCl8P-VBhG6pIe4pRi_-1" vertex="1">
          <mxGeometry x="809.042366197183" y="669.859402460457" width="104.3925633802817" height="69.59578207381371" as="geometry" />
        </mxCell>
        <mxCell id="vJWKNZolBrSju2JjRTu4-82" value="" style="endArrow=none;html=1;rounded=0;exitX=0;exitY=0;exitDx=0;exitDy=0;entryX=0.882;entryY=1.025;entryDx=0;entryDy=0;entryPerimeter=0;fontSize=21;" parent="4eCl8P-VBhG6pIe4pRi_-1" source="vJWKNZolBrSju2JjRTu4-81" target="vJWKNZolBrSju2JjRTu4-78" edge="1">
          <mxGeometry width="50" height="50" relative="1" as="geometry">
            <mxPoint x="922.1343098591549" y="561.115992970123" as="sourcePoint" />
            <mxPoint x="730.7479436619718" y="574.165202108963" as="targetPoint" />
          </mxGeometry>
        </mxCell>
        <mxCell id="vJWKNZolBrSju2JjRTu4-83" value="dipsly-text" style="ellipse;whiteSpace=wrap;html=1;fontSize=21;" parent="4eCl8P-VBhG6pIe4pRi_-1" vertex="1">
          <mxGeometry x="695.9504225352111" y="687.2583479789103" width="104.3925633802817" height="69.59578207381371" as="geometry" />
        </mxCell>
        <mxCell id="vJWKNZolBrSju2JjRTu4-84" value="" style="endArrow=none;html=1;rounded=0;entryX=0.877;entryY=1.014;entryDx=0;entryDy=0;entryPerimeter=0;exitX=0.5;exitY=0;exitDx=0;exitDy=0;fontSize=21;" parent="4eCl8P-VBhG6pIe4pRi_-1" source="vJWKNZolBrSju2JjRTu4-83" target="vJWKNZolBrSju2JjRTu4-78" edge="1">
          <mxGeometry width="50" height="50" relative="1" as="geometry">
            <mxPoint x="800.3429859154928" y="578.5149384885764" as="sourcePoint" />
            <mxPoint x="843.8398873239435" y="535.0175746924428" as="targetPoint" />
          </mxGeometry>
        </mxCell>
        <mxCell id="vJWKNZolBrSju2JjRTu4-85" value="Titile" style="ellipse;whiteSpace=wrap;html=1;fontSize=21;" parent="4eCl8P-VBhG6pIe4pRi_-1" vertex="1">
          <mxGeometry x="600.2572394366198" y="652.4604569420035" width="104.3925633802817" height="69.59578207381371" as="geometry" />
        </mxCell>
        <mxCell id="vJWKNZolBrSju2JjRTu4-86" value="" style="endArrow=none;html=1;rounded=0;exitX=0.5;exitY=0;exitDx=0;exitDy=0;entryX=0.5;entryY=1;entryDx=0;entryDy=0;fontSize=21;" parent="4eCl8P-VBhG6pIe4pRi_-1" source="vJWKNZolBrSju2JjRTu4-85" target="vJWKNZolBrSju2JjRTu4-78" edge="1">
          <mxGeometry width="50" height="50" relative="1" as="geometry">
            <mxPoint x="774.2448450704223" y="561.115992970123" as="sourcePoint" />
            <mxPoint x="817.7417464788731" y="517.6186291739895" as="targetPoint" />
          </mxGeometry>
        </mxCell>
        <mxCell id="vJWKNZolBrSju2JjRTu4-87" value="&lt;u style=&quot;font-size: 21px;&quot;&gt;id&lt;/u&gt;" style="ellipse;whiteSpace=wrap;html=1;fontSize=21;" parent="4eCl8P-VBhG6pIe4pRi_-1" vertex="1">
          <mxGeometry x="530.6621971830986" y="600.2636203866431" width="104.3925633802817" height="69.59578207381371" as="geometry" />
        </mxCell>
        <mxCell id="vJWKNZolBrSju2JjRTu4-88" value="" style="endArrow=none;html=1;rounded=0;exitX=1;exitY=0;exitDx=0;exitDy=0;entryX=0.25;entryY=1;entryDx=0;entryDy=0;fontSize=21;" parent="4eCl8P-VBhG6pIe4pRi_-1" source="vJWKNZolBrSju2JjRTu4-87" target="vJWKNZolBrSju2JjRTu4-78" edge="1">
          <mxGeometry width="50" height="50" relative="1" as="geometry">
            <mxPoint x="591.5578591549295" y="561.115992970123" as="sourcePoint" />
            <mxPoint x="635.0547605633802" y="517.6186291739895" as="targetPoint" />
          </mxGeometry>
        </mxCell>
        <mxCell id="vJWKNZolBrSju2JjRTu4-89" value="" style="endArrow=none;html=1;rounded=0;exitX=1;exitY=0.25;exitDx=0;exitDy=0;fontSize=21;" parent="4eCl8P-VBhG6pIe4pRi_-1" source="vJWKNZolBrSju2JjRTu4-78" target="vJWKNZolBrSju2JjRTu4-90" edge="1">
          <mxGeometry width="50" height="50" relative="1" as="geometry">
            <mxPoint x="574.1590985915492" y="456.7223198594024" as="sourcePoint" />
            <mxPoint x="800.3429859154928" y="430.6239015817223" as="targetPoint" />
          </mxGeometry>
        </mxCell>
        <mxCell id="vJWKNZolBrSju2JjRTu4-90" value="ppic" style="ellipse;whiteSpace=wrap;html=1;fontSize=21;" parent="4eCl8P-VBhG6pIe4pRi_-1" vertex="1">
          <mxGeometry x="830.7908169014083" y="461.07205623901575" width="104.3925633802817" height="69.59578207381371" as="geometry" />
        </mxCell>
        <mxCell id="vJWKNZolBrSju2JjRTu4-91" value="" style="endArrow=none;html=1;rounded=0;exitX=0.949;exitY=-0.008;exitDx=0;exitDy=0;exitPerimeter=0;fontSize=21;" parent="4eCl8P-VBhG6pIe4pRi_-1" source="vJWKNZolBrSju2JjRTu4-78" target="vJWKNZolBrSju2JjRTu4-92" edge="1">
          <mxGeometry width="50" height="50" relative="1" as="geometry">
            <mxPoint x="574.1590985915492" y="526.3181019332161" as="sourcePoint" />
            <mxPoint x="687.2510422535208" y="439.32337434094904" as="targetPoint" />
          </mxGeometry>
        </mxCell>
        <mxCell id="vJWKNZolBrSju2JjRTu4-92" value="bip" style="ellipse;whiteSpace=wrap;html=1;fontSize=21;" parent="4eCl8P-VBhG6pIe4pRi_-1" vertex="1">
          <mxGeometry x="713.3491830985913" y="417.5746924428822" width="104.3925633802817" height="69.59578207381371" as="geometry" />
        </mxCell>
        <mxCell id="vJWKNZolBrSju2JjRTu4-93" value="" style="endArrow=none;html=1;rounded=0;exitX=0.5;exitY=0;exitDx=0;exitDy=0;fontSize=21;" parent="4eCl8P-VBhG6pIe4pRi_-1" source="vJWKNZolBrSju2JjRTu4-78" target="vJWKNZolBrSju2JjRTu4-94" edge="1">
          <mxGeometry width="50" height="50" relative="1" as="geometry">
            <mxPoint x="548.0609577464787" y="556.7662565905097" as="sourcePoint" />
            <mxPoint x="600.2572394366198" y="478.47100175746925" as="targetPoint" />
          </mxGeometry>
        </mxCell>
        <mxCell id="vJWKNZolBrSju2JjRTu4-94" value="poster&lt;br style=&quot;font-size: 21px;&quot;&gt;" style="ellipse;whiteSpace=wrap;html=1;fontSize=21;" parent="4eCl8P-VBhG6pIe4pRi_-1" vertex="1">
          <mxGeometry x="669.8522816901408" y="347.9789103690685" width="104.3925633802817" height="69.59578207381371" as="geometry" />
        </mxCell>
        <mxCell id="vJWKNZolBrSju2JjRTu4-95" value="" style="endArrow=none;html=1;rounded=0;exitX=0.25;exitY=0;exitDx=0;exitDy=0;fontSize=21;" parent="4eCl8P-VBhG6pIe4pRi_-1" source="vJWKNZolBrSju2JjRTu4-78" target="vJWKNZolBrSju2JjRTu4-96" edge="1">
          <mxGeometry width="50" height="50" relative="1" as="geometry">
            <mxPoint x="574.1590985915492" y="535.0175746924428" as="sourcePoint" />
            <mxPoint x="487.1652957746478" y="495.86994727592264" as="targetPoint" />
          </mxGeometry>
        </mxCell>
        <mxCell id="vJWKNZolBrSju2JjRTu4-96" value="like&lt;br style=&quot;font-size: 21px;&quot;&gt;" style="ellipse;whiteSpace=wrap;html=1;fontSize=21;" parent="4eCl8P-VBhG6pIe4pRi_-1" vertex="1">
          <mxGeometry x="565.4597183098591" y="365.37785588752195" width="104.3925633802817" height="69.59578207381371" as="geometry" />
        </mxCell>
        <mxCell id="vJWKNZolBrSju2JjRTu4-97" value="" style="endArrow=none;html=1;rounded=0;exitX=0;exitY=0.25;exitDx=0;exitDy=0;fontSize=21;" parent="4eCl8P-VBhG6pIe4pRi_-1" source="vJWKNZolBrSju2JjRTu4-78" target="vJWKNZolBrSju2JjRTu4-98" edge="1">
          <mxGeometry width="50" height="50" relative="1" as="geometry">
            <mxPoint x="600.2572394366198" y="595.9138840070298" as="sourcePoint" />
            <mxPoint x="426.2696338028168" y="574.165202108963" as="targetPoint" />
          </mxGeometry>
        </mxCell>
        <mxCell id="vJWKNZolBrSju2JjRTu4-98" value="picture" style="ellipse;whiteSpace=wrap;html=1;fontSize=21;" parent="4eCl8P-VBhG6pIe4pRi_-1" vertex="1">
          <mxGeometry x="469.7665352112676" y="400.1757469244288" width="104.3925633802817" height="69.59578207381371" as="geometry" />
        </mxCell>
        <mxCell id="vJWKNZolBrSju2JjRTu4-99" value="requests" style="rhombus;whiteSpace=wrap;html=1;fontSize=21;" parent="4eCl8P-VBhG6pIe4pRi_-1" vertex="1">
          <mxGeometry x="347.9752112676056" y="635.0615114235501" width="104.3925633802817" height="69.59578207381371" as="geometry" />
        </mxCell>
        <mxCell id="vJWKNZolBrSju2JjRTu4-100" value="" style="endArrow=none;html=1;rounded=0;exitX=1;exitY=0.5;exitDx=0;exitDy=0;entryX=0;entryY=0.5;entryDx=0;entryDy=0;fontSize=21;" parent="4eCl8P-VBhG6pIe4pRi_-1" source="vJWKNZolBrSju2JjRTu4-99" target="vJWKNZolBrSju2JjRTu4-78" edge="1">
          <mxGeometry width="50" height="50" relative="1" as="geometry">
            <mxPoint x="495.86467605633794" y="669.859402460457" as="sourcePoint" />
            <mxPoint x="539.3615774647888" y="626.3620386643232" as="targetPoint" />
          </mxGeometry>
        </mxCell>
        <mxCell id="vJWKNZolBrSju2JjRTu4-101" value="" style="endArrow=none;html=1;rounded=0;exitX=0.5;exitY=0;exitDx=0;exitDy=0;entryX=0;entryY=0.5;entryDx=0;entryDy=0;fontSize=21;" parent="4eCl8P-VBhG6pIe4pRi_-1" source="vJWKNZolBrSju2JjRTu4-54" target="vJWKNZolBrSju2JjRTu4-99" edge="1">
          <mxGeometry width="50" height="50" relative="1" as="geometry">
            <mxPoint x="495.86467605633794" y="669.859402460457" as="sourcePoint" />
            <mxPoint x="539.3615774647888" y="626.3620386643232" as="targetPoint" />
          </mxGeometry>
        </mxCell>
        <mxCell id="vJWKNZolBrSju2JjRTu4-102" value="requests" style="rhombus;whiteSpace=wrap;html=1;fontSize=21;" parent="4eCl8P-VBhG6pIe4pRi_-1" vertex="1">
          <mxGeometry x="321.8770704225352" y="400.1757469244288" width="104.3925633802817" height="69.59578207381371" as="geometry" />
        </mxCell>
        <mxCell id="vJWKNZolBrSju2JjRTu4-103" value="" style="endArrow=none;html=1;rounded=0;exitX=1;exitY=0.5;exitDx=0;exitDy=0;entryX=0;entryY=0.5;entryDx=0;entryDy=0;fontSize=21;" parent="4eCl8P-VBhG6pIe4pRi_-1" source="vJWKNZolBrSju2JjRTu4-32" target="vJWKNZolBrSju2JjRTu4-102" edge="1">
          <mxGeometry width="50" height="50" relative="1" as="geometry">
            <mxPoint x="417.5702535211268" y="539.367311072056" as="sourcePoint" />
            <mxPoint x="461.06715492957744" y="495.86994727592264" as="targetPoint" />
          </mxGeometry>
        </mxCell>
        <mxCell id="vJWKNZolBrSju2JjRTu4-105" value="" style="endArrow=none;html=1;rounded=0;exitX=1;exitY=0.5;exitDx=0;exitDy=0;entryX=0;entryY=0.5;entryDx=0;entryDy=0;fontSize=21;" parent="4eCl8P-VBhG6pIe4pRi_-1" source="vJWKNZolBrSju2JjRTu4-102" target="vJWKNZolBrSju2JjRTu4-78" edge="1">
          <mxGeometry width="50" height="50" relative="1" as="geometry">
            <mxPoint x="591.5578591549295" y="452.3725834797891" as="sourcePoint" />
            <mxPoint x="635.0547605633802" y="408.87521968365553" as="targetPoint" />
          </mxGeometry>
        </mxCell>
        <mxCell id="vJWKNZolBrSju2JjRTu4-108" value="requests" style="rhombus;whiteSpace=wrap;html=1;fontSize=21;" parent="4eCl8P-VBhG6pIe4pRi_-1" vertex="1">
          <mxGeometry x="1191.8150985915493" y="382.77680140597533" width="104.3925633802817" height="69.59578207381371" as="geometry" />
        </mxCell>
        <mxCell id="vJWKNZolBrSju2JjRTu4-109" value="requests" style="rhombus;whiteSpace=wrap;html=1;fontSize=21;" parent="4eCl8P-VBhG6pIe4pRi_-1" vertex="1">
          <mxGeometry x="983.0299718309859" y="591.5641476274166" width="104.3925633802817" height="69.59578207381371" as="geometry" />
        </mxCell>
        <mxCell id="vJWKNZolBrSju2JjRTu4-111" value="" style="endArrow=none;html=1;rounded=0;entryX=0;entryY=0.5;entryDx=0;entryDy=0;fontSize=21;" parent="4eCl8P-VBhG6pIe4pRi_-1" source="vJWKNZolBrSju2JjRTu4-15" target="vJWKNZolBrSju2JjRTu4-109" edge="1">
          <mxGeometry width="50" height="50" relative="1" as="geometry">
            <mxPoint x="809.042366197183" y="574.165202108963" as="sourcePoint" />
            <mxPoint x="852.5392676056337" y="530.6678383128294" as="targetPoint" />
          </mxGeometry>
        </mxCell>
        <mxCell id="vJWKNZolBrSju2JjRTu4-113" value="" style="endArrow=none;html=1;rounded=0;entryX=0.5;entryY=0;entryDx=0;entryDy=0;exitX=0.5;exitY=1;exitDx=0;exitDy=0;fontSize=21;" parent="4eCl8P-VBhG6pIe4pRi_-1" source="vJWKNZolBrSju2JjRTu4-108" target="vJWKNZolBrSju2JjRTu4-43" edge="1">
          <mxGeometry width="50" height="50" relative="1" as="geometry">
            <mxPoint x="861.2386478873239" y="443.67311072056236" as="sourcePoint" />
            <mxPoint x="904.7355492957744" y="400.1757469244288" as="targetPoint" />
          </mxGeometry>
        </mxCell>
        <mxCell id="vJWKNZolBrSju2JjRTu4-114" value="" style="endArrow=none;html=1;rounded=0;entryX=0.5;entryY=1;entryDx=0;entryDy=0;exitX=0.5;exitY=0;exitDx=0;exitDy=0;fontSize=21;" parent="4eCl8P-VBhG6pIe4pRi_-1" source="vJWKNZolBrSju2JjRTu4-67" target="vJWKNZolBrSju2JjRTu4-109" edge="1">
          <mxGeometry width="50" height="50" relative="1" as="geometry">
            <mxPoint x="678.551661971831" y="591.5641476274166" as="sourcePoint" />
            <mxPoint x="722.0485633802816" y="548.0667838312829" as="targetPoint" />
          </mxGeometry>
        </mxCell>
        <mxCell id="vJWKNZolBrSju2JjRTu4-116" value="creates" style="rhombus;whiteSpace=wrap;html=1;fontSize=21;" parent="4eCl8P-VBhG6pIe4pRi_-1" vertex="1">
          <mxGeometry x="643.7541408450704" y="86.99472759226713" width="104.3925633802817" height="69.59578207381371" as="geometry" />
        </mxCell>
        <mxCell id="vJWKNZolBrSju2JjRTu4-117" value="" style="endArrow=none;html=1;rounded=0;exitX=1;exitY=0.5;exitDx=0;exitDy=0;entryX=0;entryY=0.5;entryDx=0;entryDy=0;fontSize=21;" parent="4eCl8P-VBhG6pIe4pRi_-1" source="vJWKNZolBrSju2JjRTu4-1" target="vJWKNZolBrSju2JjRTu4-116" edge="1">
          <mxGeometry width="50" height="50" relative="1" as="geometry">
            <mxPoint x="287.0795492957746" y="165.28998242530756" as="sourcePoint" />
            <mxPoint x="330.5764507042253" y="121.79261862917397" as="targetPoint" />
          </mxGeometry>
        </mxCell>
        <mxCell id="hD1TAkFpua0uFgt2I9aI-4" value="1" style="edgeLabel;html=1;align=center;verticalAlign=middle;resizable=0;points=[];" parent="vJWKNZolBrSju2JjRTu4-117" vertex="1" connectable="0">
          <mxGeometry x="-0.8014" y="-1" relative="1" as="geometry">
            <mxPoint y="-11" as="offset" />
          </mxGeometry>
        </mxCell>
        <mxCell id="vJWKNZolBrSju2JjRTu4-118" value="" style="endArrow=none;html=1;rounded=0;exitX=1;exitY=0.5;exitDx=0;exitDy=0;entryX=0;entryY=0.25;entryDx=0;entryDy=0;fontSize=21;" parent="4eCl8P-VBhG6pIe4pRi_-1" source="vJWKNZolBrSju2JjRTu4-116" target="vJWKNZolBrSju2JjRTu4-15" edge="1">
          <mxGeometry width="50" height="50" relative="1" as="geometry">
            <mxPoint x="756.8460845070423" y="165.28998242530756" as="sourcePoint" />
            <mxPoint x="800.3429859154928" y="121.79261862917397" as="targetPoint" />
          </mxGeometry>
        </mxCell>
        <mxCell id="vJWKNZolBrSju2JjRTu4-119" value="makes" style="rhombus;whiteSpace=wrap;html=1;fontSize=21;" parent="4eCl8P-VBhG6pIe4pRi_-1" vertex="1">
          <mxGeometry x="861.2386478873239" y="295.7820738137083" width="104.3925633802817" height="69.59578207381371" as="geometry" />
        </mxCell>
        <mxCell id="vJWKNZolBrSju2JjRTu4-120" value="" style="endArrow=none;html=1;rounded=0;entryX=0;entryY=0.5;entryDx=0;entryDy=0;exitX=0.5;exitY=0;exitDx=0;exitDy=0;fontSize=21;" parent="4eCl8P-VBhG6pIe4pRi_-1" source="vJWKNZolBrSju2JjRTu4-119" target="vJWKNZolBrSju2JjRTu4-15" edge="1">
          <mxGeometry width="50" height="50" relative="1" as="geometry">
            <mxPoint x="843.8398873239435" y="391.476274165202" as="sourcePoint" />
            <mxPoint x="1104.8212957746478" y="173.98945518453425" as="targetPoint" />
            <Array as="points">
              <mxPoint x="991.7293521126759" y="217.4868189806678" />
            </Array>
          </mxGeometry>
        </mxCell>
        <mxCell id="vJWKNZolBrSju2JjRTu4-121" value="" style="endArrow=none;html=1;rounded=0;entryX=0.5;entryY=1;entryDx=0;entryDy=0;exitX=1.005;exitY=0.141;exitDx=0;exitDy=0;exitPerimeter=0;fontSize=21;" parent="4eCl8P-VBhG6pIe4pRi_-1" source="vJWKNZolBrSju2JjRTu4-78" target="vJWKNZolBrSju2JjRTu4-119" edge="1">
          <mxGeometry width="50" height="50" relative="1" as="geometry">
            <mxPoint x="765.5454647887323" y="469.7715289982425" as="sourcePoint" />
            <mxPoint x="809.042366197183" y="426.274165202109" as="targetPoint" />
            <Array as="points">
              <mxPoint x="913.4349295774647" y="408.87521968365553" />
            </Array>
          </mxGeometry>
        </mxCell>
        <mxCell id="hD1TAkFpua0uFgt2I9aI-1" value="1" style="text;html=1;align=center;verticalAlign=middle;resizable=0;points=[];autosize=1;strokeColor=none;fillColor=none;fontSize=21;" parent="4eCl8P-VBhG6pIe4pRi_-1" vertex="1">
          <mxGeometry x="1043.9256338028167" y="156.5905096660808" width="40" height="40" as="geometry" />
        </mxCell>
        <mxCell id="hD1TAkFpua0uFgt2I9aI-2" value="m&lt;br style=&quot;font-size: 21px;&quot;&gt;" style="text;html=1;align=center;verticalAlign=middle;resizable=0;points=[];autosize=1;strokeColor=none;fillColor=none;fontSize=21;" parent="4eCl8P-VBhG6pIe4pRi_-1" vertex="1">
          <mxGeometry x="826.4411267605633" y="430.6239015817223" width="40" height="40" as="geometry" />
        </mxCell>
        <mxCell id="hD1TAkFpua0uFgt2I9aI-5" value="1" style="text;html=1;align=center;verticalAlign=middle;resizable=0;points=[];autosize=1;strokeColor=none;fillColor=none;fontSize=21;" parent="4eCl8P-VBhG6pIe4pRi_-1" vertex="1">
          <mxGeometry x="1013.4778028169012" y="117.44288224956063" width="40" height="40" as="geometry" />
        </mxCell>
        <mxCell id="hD1TAkFpua0uFgt2I9aI-6" value="1" style="text;html=1;align=center;verticalAlign=middle;resizable=0;points=[];autosize=1;strokeColor=none;fillColor=none;fontSize=21;" parent="4eCl8P-VBhG6pIe4pRi_-1" vertex="1">
          <mxGeometry x="574.1590985915492" y="515.8787346221442" width="40" height="40" as="geometry" />
        </mxCell>
        <mxCell id="hD1TAkFpua0uFgt2I9aI-7" value="m" style="text;html=1;align=center;verticalAlign=middle;resizable=0;points=[];autosize=1;strokeColor=none;fillColor=none;fontSize=21;" parent="4eCl8P-VBhG6pIe4pRi_-1" vertex="1">
          <mxGeometry x="252.282028169014" y="402.78558875219676" width="40" height="40" as="geometry" />
        </mxCell>
        <mxCell id="hD1TAkFpua0uFgt2I9aI-8" value="1&lt;br style=&quot;font-size: 21px;&quot;&gt;" style="text;html=1;align=center;verticalAlign=middle;resizable=0;points=[];autosize=1;strokeColor=none;fillColor=none;fontSize=21;" parent="4eCl8P-VBhG6pIe4pRi_-1" vertex="1">
          <mxGeometry x="582.8584788732394" y="541.9771528998242" width="40" height="40" as="geometry" />
        </mxCell>
        <mxCell id="hD1TAkFpua0uFgt2I9aI-10" value="m" style="text;html=1;align=center;verticalAlign=middle;resizable=0;points=[];autosize=1;strokeColor=none;fillColor=none;fontSize=21;" parent="4eCl8P-VBhG6pIe4pRi_-1" vertex="1">
          <mxGeometry x="200.0857464788732" y="759.463971880492" width="40" height="40" as="geometry" />
        </mxCell>
        <mxCell id="hD1TAkFpua0uFgt2I9aI-13" value="" style="endArrow=none;html=1;rounded=0;entryX=0.5;entryY=1;entryDx=0;entryDy=0;exitX=0;exitY=0;exitDx=0;exitDy=0;fontSize=21;" parent="4eCl8P-VBhG6pIe4pRi_-1" source="vJWKNZolBrSju2JjRTu4-108" target="vJWKNZolBrSju2JjRTu4-15" edge="1">
          <mxGeometry width="50" height="50" relative="1" as="geometry">
            <mxPoint x="1139.618816901408" y="513.2688927943761" as="sourcePoint" />
            <mxPoint x="1183.115718309859" y="469.7715289982425" as="targetPoint" />
          </mxGeometry>
        </mxCell>
        <mxCell id="hD1TAkFpua0uFgt2I9aI-14" value="1" style="edgeLabel;html=1;align=center;verticalAlign=middle;resizable=0;points=[];" parent="hD1TAkFpua0uFgt2I9aI-13" vertex="1" connectable="0">
          <mxGeometry x="0.7474" relative="1" as="geometry">
            <mxPoint x="-8" y="10" as="offset" />
          </mxGeometry>
        </mxCell>
        <mxCell id="hD1TAkFpua0uFgt2I9aI-15" value="m" style="text;html=1;align=center;verticalAlign=middle;resizable=0;points=[];autosize=1;strokeColor=none;fillColor=none;fontSize=21;" parent="4eCl8P-VBhG6pIe4pRi_-1" vertex="1">
          <mxGeometry x="1283.1585915492956" y="456.7223198594024" width="40" height="40" as="geometry" />
        </mxCell>
        <mxCell id="hD1TAkFpua0uFgt2I9aI-16" value="1" style="text;html=1;align=center;verticalAlign=middle;resizable=0;points=[];autosize=1;strokeColor=none;fillColor=none;fontSize=21;" parent="4eCl8P-VBhG6pIe4pRi_-1" vertex="1">
          <mxGeometry x="1126.5697464788727" y="234.88576449912125" width="40" height="40" as="geometry" />
        </mxCell>
        <mxCell id="hD1TAkFpua0uFgt2I9aI-17" value="m" style="text;html=1;align=center;verticalAlign=middle;resizable=0;points=[];autosize=1;strokeColor=none;fillColor=none;fontSize=21;" parent="4eCl8P-VBhG6pIe4pRi_-1" vertex="1">
          <mxGeometry x="1026.5268732394363" y="742.0650263620385" width="40" height="40" as="geometry" />
        </mxCell>
      </root>
    </mxGraphModel>
  </diagram>
</mxfile>
